<svg xmlns="http://www.w3.org/2000/svg" width="24" height="24" viewBox="0 0 24 24" fill="none">
    <path
        d="M2 8.34V15.66C2 17.16 3.62999 18.1 4.92999 17.35L8.10001 15.53L11.27 13.7C11.47 13.58 11.63 13.45 11.76 13.29V10.73C11.63 10.57 11.47 10.44 11.27 10.32L8.10001 8.48999L4.92999 6.67002C3.62999 5.90002 2 6.84 2 8.34Z"
        stroke="#1D1D1B" stroke-width="1.5" stroke-linecap="round" stroke-linejoin="round" />
    <path
        d="M11.7598 8.34V15.66C11.7598 17.16 13.3898 18.1 14.6898 17.35L17.8597 15.53L21.0298 13.7C22.3298 12.95 22.3298 11.08 21.0298 10.32L17.8597 8.48999L14.6898 6.67002C13.3898 5.90002 11.7598 6.84 11.7598 8.34Z"
        stroke="#1D1D1B" stroke-width="1.5" stroke-linecap="round" stroke-linejoin="round" />
</svg>