<svg width="452" height="311" fill="none" xmlns="http://www.w3.org/2000/svg"><path d="M382.716 138.824c-2.995 6.123-5.421 11.808-8.401 17.208a54.746 54.746 0 0 1-7.487 10.605c-9.509 10.304-24.169 8.604-31.447-3.415-4.657-7.701-5.256-16.44-6.289-25.074-.105-.903-.27-1.805-.584-3.896-1.618 2.707-2.666 4.512-3.714 6.182-1.288 2.121-2.441 4.362-3.923 6.333-1.483 1.97-3.355 5.46-5.301 5.64-4.148.391-8.985.121-12.489-1.865-2.636-1.504-3.624-6.017-5.092-9.371a25.077 25.077 0 0 1-.943-5.505 265.43 265.43 0 0 0-2.037 3.519c-4.867 9.642-13.851 13.689-24.349 10.936-9.269-2.422-10.737-3.926-10.108-13.538.524-8.258 2.022-16.546 2.995-24.714.315-2.466.524-4.963.779-7.445l-1.213-.361a46.118 46.118 0 0 0-2.995 3.986c-3.983 6.573-7.757 13.282-11.875 19.765-3.309 5.234-6.978 10.243-10.557 15.282a7.022 7.022 0 0 1-3.632 2.819 6.99 6.99 0 0 1-4.589-.036c-7.218-2.106-12.968-6.107-12.624-15.117.374-9.687.509-19.374.749-29.061a3.018 3.018 0 0 0-.719-2.136c-1.423 1.73-2.995 3.37-4.268 5.205-5.645 8.167-11.186 16.395-16.832 24.563-4.207 6.107-8.46 12.184-12.848 18.156a3.553 3.553 0 0 1-3.1 1.128c-3.668-1.098-7.232-2.512-10.811-3.911-2.546-1.008-3.28-2.858-2.995-5.656 1.048-9.371 2.276-18.757 2.575-28.173a104.38 104.38 0 0 0-1.797-18.758c-.584-3.91-.389-5.505 3.474-5.655 5.405-.017 10.803.396 16.143 1.233.854.105 1.932 1.504 2.216 2.542a21.2 21.2 0 0 1 .599 5.52v27.768c1.693-2.301 2.995-3.866 4.059-5.52 3.938-5.867 7.592-12.034 11.83-17.599 6.469-8.62 15.364-11.628 25.921-10.274a4.348 4.348 0 0 1 2.81 1.063 4.382 4.382 0 0 1 1.458 2.637c1.976 7.762 1.183 15.538.569 23.345-.285 3.761-.375 7.521-.554 11.297l1.003.331c.719-1.053 1.408-2.136 2.171-3.144 6.619-8.679 12.879-17.659 20.037-25.872a32.638 32.638 0 0 1 12.189-8.002c5.705-2.302 8.311.541 8.042 6.663-.555 12.515-.839 25.045-.974 37.605 0 2.632 1.048 5.264 1.872 9.025 3.489-3.008 6.259-5.295 8.985-7.686 5.84-5.1 9.149-10.74 7.936-19.329a88.221 88.221 0 0 1 .51-23.736c1.332-9.763 10.976-13.538 19.602-8.334-3.924 18.803-2.381 37.74-1.827 57.731a23.59 23.59 0 0 0 2.995-2.572c3.204-4.106 6.439-8.198 9.404-12.47a9.304 9.304 0 0 0 1.033-4.512c1.857-33.348 6.215-66.26 16.472-98.179 1.618-5.069 3.939-9.912 5.99-14.846a16.033 16.033 0 0 1 4.108-5.663 15.94 15.94 0 0 1 6.12-3.362c8.356-3.054 16.742-2.587 25.128-.045 3.129.917 2.695 3.159 2.261 5.34-1.917 9.747-3.789 19.554-5.9 29.196-5.646 25.902-13.837 50.766-28.827 72.983a18.567 18.567 0 0 0-2.59 9.131c-.614 13.402-.869 26.819-1.183 40.237-.033 1.365.18 2.726.629 4.016a3.9 3.9 0 0 0 1.025 1.704 3.864 3.864 0 0 0 5.429-.035c9.404-8.679 16.352-19.238 22.866-30.083.448-.87.591-1.867.405-2.828-2.995-15.283 1.886-29.106 8.505-42.313a110.06 110.06 0 0 1 12.923-19.404c7.967-9.837 18.839-9.852 29.95-7.145a52.658 52.658 0 0 1 11.291 4.513 4.794 4.794 0 0 1 2.662 2.94 4.83 4.83 0 0 1-.446 3.949 56.665 56.665 0 0 1-3.204 5.836 158.773 158.773 0 0 1-26.506 31.588c-2.665 2.392-5.061 5.099-7.487 7.747-8.521 9.295-5.286 22.292 5.511 28.76a5.965 5.965 0 0 0 4.717-.286c12.099-5.897 21.953-14.741 31.072-24.473a10.333 10.333 0 0 1 2.231-2.016 51.487 51.487 0 0 1-13.582 24.067c-18.763 19.449-41.33 9.627-52.876-3.745a73.598 73.598 0 0 0-2.276-2.934ZM352.138 99.61l1.033.437c.839-1.279 1.782-2.497 2.501-3.836 9.149-17.088 14.675-35.484 18.718-54.316a251.493 251.493 0 0 0 3.624-26.444c.165-1.625-1.288-3.445-1.991-5.16-2.067.918-4.193 1.73-6.17 2.813a4.377 4.377 0 0 0-1.378 2.167c-2.995 6.934-6.439 13.718-8.745 20.863-5.78 18.05-6.948 36.717-7.577 55.474-.09 2.662-.015 5.34-.015 8.002Zm46.886 7.13 1.183.527a275.319 275.319 0 0 0 30.833-36.221c-8.012-1.91-13.762.3-18.509 5.325-6.484 6.859-9.883 15.357-12.279 24.337-.554 1.986-.824 4.017-1.228 6.032ZM54.651 223.856c-2.111 2.346-4.253 4.663-6.349 7.039-12.863 14.621-20.485 32.145-27.074 50.15-.78 2.136.374 5.34 1.422 7.702a9.24 9.24 0 0 1-.748 9.506 6.933 6.933 0 0 1-2.663 2.415 6.892 6.892 0 0 1-6.92-.365 6.942 6.942 0 0 1-2.397-2.682c-.42-.752-.614-1.745-1.228-2.256-7.577-6.318-8.58-15.042-8.67-24.067-.375-40.312 3.728-80.128 14.046-119.177 2.066-7.852 5.615-10.529 13.776-10.785a38.935 38.935 0 0 1 19.048 4.046c5.346 2.618 7.488 6.483 6.694 12.365a140.175 140.175 0 0 1-11.86 40.207c-4.298 9.446-10.093 18.185-14.54 27.572-2.561 5.43-3.924 11.461-5.511 17.298a72.824 72.824 0 0 0-2.067 11.356c.025 1.894.276 3.778.75 5.611l1.092.135c1.498-2.632 3.1-5.234 4.493-7.927 5.18-9.822 11.051-19.163 18.928-27.075a71.63 71.63 0 0 1 7.637-6.483c3.115-2.362 6.649-3.776 10.303-1.339a10.84 10.84 0 0 1 4.095 4.449 10.9 10.9 0 0 1 1.086 5.96 121.274 121.274 0 0 1-8.386 36.507 400.627 400.627 0 0 0-2.231 5.926s.134.181.404.527c5.63-2.813 11.366-5.596 16.981-8.589.66-.361.839-1.911.944-3.009 1.587-14.831 5.99-28.715 14.36-41.064 7.713-11.311 27.869-13.041 37.782-3.49a41.075 41.075 0 0 1 2.8 3.415c-3.878-.527-6.813-.767-9.674-1.354-6.169-1.263-10.886.993-14.735 5.671-6.723 8.198-9.359 18.05-10.347 28.264a73.526 73.526 0 0 0 .763 17.207 44.874 44.874 0 0 0 4.493-4.918c4.747-7.13 9.254-14.41 13.986-21.54 1.498-2.272 3.459-4.227 5.062-6.423 4.417-6.017 10.243-8.078 17.55-6.829 5.346.902 6.604 2.527 5.166 7.792-1.497 5.625-3.234 11.206-4.492 16.892a117.67 117.67 0 0 0-1.258 12.214c1.273-.467 1.797-.497 2.082-.783 5.99-5.806 11.979-11.597 17.715-17.538a6.886 6.886 0 0 0 1.273-3.701c1.991-12.86 3.564-25.796 5.99-38.567.958-5.009 3.638-9.732 5.989-14.395a5.17 5.17 0 0 1 3.984-2.256c4.582 0 9.119.722 12.878 4.241-6.364 11.883-8.176 24.368-5.63 38.613 1.317-1.85 2.126-3.008 2.92-4.076 5.84-8.319 11.38-16.877 17.64-24.865 2.83-3.61 6.888-6.377 10.722-9.025a12.394 12.394 0 0 1 11.066-1.399c5.706 1.775 8.206 5.069 7.952 11.041-.42 10.168-5.241 18.757-10.003 27.361-1.498 2.723-2.786 5.566-4.403 8.83a7.881 7.881 0 0 1-1.737 0c-8.805-1.264-9.958-3.49-7.233-11.793 2.246-6.814 3.924-13.808 5.616-20.788.449-1.835.075-3.866.075-7.07-2.501 2.091-4.688 3.204-5.856 4.994-4.821 7.326-10.123 14.486-13.761 22.413-6.08 13.161-11.157 26.804-16.293 40.387-.913 2.392-.135 5.415-.135 8.92a15.94 15.94 0 0 1-7.684 1.933 15.941 15.941 0 0 1-7.665-2.008c-7.307-3.716-7.412-10.53-6.484-18.532a36.601 36.601 0 0 0-2.531 2.708c-3.324 4.633-6.559 9.341-9.928 13.944a13.499 13.499 0 0 1-5.195 4.367 13.42 13.42 0 0 1-13.087-.861 13.512 13.512 0 0 1-4.584-5.011c-1.767-3.234-2.995-6.753-4.912-10.92-2.411 3.836-4.657 7.145-6.634 10.62-2.366 4.196-4.657 8.348-10.213 8.679-7.397.451-14.885.586-20.425-5.34-1.857-1.971-2.366-5.205-3.684-8.363-5.002 4.226-9.958 8.679-15.184 12.785-6.62 5.205-13.388 10.184-20.201 15.117a12.082 12.082 0 0 1-4.762 1.956c-3.759.722-5.84-1.64-4.268-5.099 4.013-8.8 8.326-17.479 12.519-26.188 5.046-10.53 10.123-21.059 11.98-32.732.419-2.557.464-5.174.673-7.761l-1.093-.692Zm-32.24-9.416 1.258.316c1.497-3.58 3.204-7.145 4.747-10.755 6.588-15.524 14.016-30.731 17.265-47.473.884-4.512-1.048-7.144-5.57-7.521-3.534-.3-5.99 1.264-6.919 5.295-2.994 13.688-5.915 27.376-8.52 41.14-1.183 6.227-1.528 12.71-2.261 18.998Z" fill="#1D1D1B"/><path d="M81.127 144.976c3.624 8.484 7.367 16.862 10.737 25.376 1.677 4.241 4.387 5.385 8.655 4.888a36.423 36.423 0 0 0 17.97-6.378c9.509-6.979 11.98-18.411 6.319-28.775-4.358-7.957-11.56-12.74-18.943-17.403a111.315 111.315 0 0 1-12.803-8.845C82.19 104.634 78.207 92.465 79.15 78.536a61.12 61.12 0 0 1 15.783-38.131 25.322 25.322 0 0 1 8.613-6.629 25.217 25.217 0 0 1 10.585-2.396 107.948 107.948 0 0 1 38.276 5.926c11.979 4.302 15.993 11.643 12.758 24.067a73.025 73.025 0 0 1-6.903 16.772c-4.313 7.807-9.36 15.222-14.226 22.713-.48.737-2.321 1.504-2.741 1.188-1.003-.752-2.216-2.21-2.111-3.264a24.93 24.93 0 0 1 1.887-6.392c4.118-10.936 7.682-21.992 8.76-33.77.973-10.62-.749-13.417-11.156-15.839a40.041 40.041 0 0 0-6.215-1.053c-11.98-.737-16.472 2.693-19.737 11.086-3.264 8.394-6.499 17.148-7.367 26.429-1.303 13.839 3.369 25.27 13.837 34.085 6.723 5.641 14.001 10.634 21.084 15.854 7.083 5.22 13.956 10.755 18.434 18.622 6.379 11.221 4.702 21.63-5.151 29.993a51.342 51.342 0 0 1-17.723 9.959 51.178 51.178 0 0 1-20.178 2.285c-12.804-.917-25.562-2.632-38.32-4.151a4 4 0 0 1-2.741-2.317c-2.576-8.724-4.493-17.568-3.939-26.759.42-6.919 3.984-10.936 10.468-11.838ZM326.383 41.864c-2.037 5.386-3.954 10.079-5.586 14.862a114.294 114.294 0 0 0-3.848 13.116 3.768 3.768 0 0 1-1.246 2.514 3.736 3.736 0 0 1-2.633.946 7.608 7.608 0 0 1-5.318-1.175 7.666 7.666 0 0 1-3.187-4.436 32.884 32.884 0 0 1 .524-20.472c2.321-6.212 7.023-8.814 13.477-7.52 2.501.436 4.927 1.338 7.817 2.166Z" fill="#1D1D1B"/><path d="m236.37 264.95 38.021-33.784 92.619 3.429 32.66 20.277v25.27l-98.953-14.199-64.347 1.459v-2.452Z" fill="#741923"/><path d="m347.182 262.454 19.167-.977 2.666 1.714 6.619-2.391 3.429-.737 16.472 10.048s-31.207.24-32.226 0c-1.018-.241-16.127-7.657-16.127-7.657ZM266.725 248.841a.84.84 0 0 0-.254.542c-.075.977-.21 3.88.748 4.392.959.511 8.985.827 9.764.857h.12l3.998-.451a.879.879 0 0 0 .374-.135l1.962-1.294.928 1.805a.794.794 0 0 0 .719.466c3.534.106 24.619.692 26.745.421 2.126-.27 6.574-3.324 8.176-4.407a.853.853 0 0 1 1.048.075l3.535 3.099a.814.814 0 0 0 .658.211l25.458-2.407 5.989-.918c.45 0 1.109-.646 1.064-1.098a1.99 1.99 0 0 1 .524-1.414c.614-.391 3.698.767 4.657 1.038a.784.784 0 0 0 .419 0l4.073-.917a.873.873 0 0 0 .375-1.505 81.084 81.084 0 0 0-9.494-6.874c-4.493-2.572-12.25-3.986-21.759-2.752-9.209 1.188-37.526 1.038-39.219 1.038h-.164l-24.858 4.828a.834.834 0 0 0-.435.241l-5.151 5.159Z" fill="#fff"/><path d="M413.865 240.237a244.206 244.206 0 0 1-19.602-19.209c-7.667-8.092-14.975-16.546-22.462-24.759-6.768-7.445-15.379-9.536-24.678-6.964-7.293 2.031-14.241 5.325-21.249 8.303a6.288 6.288 0 0 1-5.766.271 71.07 71.07 0 0 0-14.974-5.114c-11.067-2.046-21.759-1.083-30.429 7.325a134.208 134.208 0 0 0-10.737 11.326c-11.65 14.14-22.971 28.58-34.682 42.599a85.991 85.991 0 0 1-22.552 19.976c2.324.146 4.655.146 6.979 0 16.352-2.227 32.255.285 47.919 4.603 21.069 5.821 40.432 15.854 59.989 25.27 7.247 3.49 14.465 6.724 22.776 7.085 12.28.526 23.436-3.009 34.053-8.634 19.782-10.379 35.939-25.271 50.719-41.802 3.519-3.911 7.068-7.807 10.228-11.296-9.689 2.121-18.074-2.738-25.532-8.98Zm-35.745 28.715c-7.801 0-13.642 0-19.467-1.956-5.825-1.955-15.603-7.837-23.39-9.792-7.787-1.955-17.551-3.926-37.048-1.955-19.497 1.97-42.902 5.866-45.823 6.844 0 0 11.696-9.793 17.551-13.704 5.855-3.91 13.642-7.836 35.086-5.881 5.825.542 15.603 3.926 15.603 3.926a57.368 57.368 0 0 1 11.696-5.881c5.855-1.956 9.748-1.956 17.55-1.956 7.802 0 15.604 7.837 17.55 9.792 1.947 1.956 11.696 11.748 17.551 15.674 5.855 3.926 7.802 3.911 7.802 3.911l.973.978H378.12Z" fill="#DD2C14"/><path opacity=".33" d="m212.605 271.884 23.765-7.686 22.462-9.973 8.131-3.7s-1.811 5.851-13.582 11.146c-11.77 5.295-32.255 11.236-38.365 11.853a58.268 58.268 0 0 1-8.266.466l5.855-2.106ZM373.031 253.91a91.703 91.703 0 0 0 13.223 7.641 30.384 30.384 0 0 0 16.098 2.588c5.481-.617 20.066-3.204 24.618-4.122 4.553-.917.15 3.204-7.487 5.806-7.637 2.603-12.309 5.34-20.516 3.956-8.206-1.384-11.246-3.294-17.625-7.746-6.379-4.453-8.311-8.123-8.311-8.123Z" fill="#741923"/><path d="M330.487 274.893c17.431 2.422 32.945 12.38 51.274 5.415-8.955 10.139-35.52 7.07-51.274-5.415ZM375.248 261.582c3.863-1.174 7.487-2.121 10.916 1.429 1.498 1.609 3.939 2.406 5.99 3.565a70.43 70.43 0 0 1-36.254-3.25v-1.158h15.859a12.613 12.613 0 0 0 3.489-.586ZM319.271 210.153c-7.937-5.806-17.041-6.935-26.386-7.265a30.871 30.871 0 0 1-5.765-.482c10.557-3.008 21.055-3.264 31.118 1.85a5.15 5.15 0 0 0 5.99-.376c10.093-6.423 21.114-7.521 32.63-4.678-5.586.873-11.381 1.113-16.712 2.813-5.766 1.865-11.082 5.129-16.682 7.626-1.303.542-3.384 1.113-4.193.512ZM323.403 276.788a3.903 3.903 0 0 0 3.894-3.911 3.903 3.903 0 0 0-3.894-3.911 3.902 3.902 0 0 0-3.893 3.911 3.902 3.902 0 0 0 3.893 3.911Z" fill="#fff"/></svg>