<svg xmlns="http://www.w3.org/2000/svg" viewBox="0 0 68 48" fill="none">
    <path
        d="M57.6473 21.4263C57.1962 22.3712 56.8307 23.2487 56.3819 24.0822C56.0705 24.6719 55.6919 25.2214 55.2541 25.7189C53.8218 27.3092 51.6136 27.0468 50.5174 25.1919C49.8159 24.0032 49.7257 22.6544 49.57 21.3218C49.5542 21.1825 49.5294 21.0432 49.4821 20.7205C49.2385 21.1384 49.0806 21.417 48.9227 21.6747C48.7287 22.002 48.555 22.3479 48.3317 22.6521C48.1084 22.9562 47.8265 23.4948 47.5332 23.5227C46.9084 23.583 46.1799 23.5412 45.6521 23.2348C45.2551 23.0026 45.1062 22.3062 44.8852 21.7884C44.8071 21.5116 44.7594 21.2266 44.7431 20.9387C44.5942 21.1988 44.5175 21.3357 44.4363 21.482C43.7033 22.9701 42.3499 23.5946 40.7687 23.1698C39.3725 22.796 39.1515 22.5639 39.2462 21.0804C39.3252 19.8058 39.5507 18.5266 39.6973 17.266C39.7447 16.8853 39.7763 16.4999 39.8146 16.1168L39.6319 16.0611C39.4708 16.2576 39.3203 16.463 39.1808 16.6763C38.5808 17.6909 38.0124 18.7263 37.3921 19.7269C36.8937 20.5348 36.341 21.3079 35.802 22.0856C35.6721 22.2896 35.4795 22.4428 35.2549 22.5207C35.0304 22.5985 34.787 22.5966 34.5636 22.5151C33.4764 22.1901 32.6103 21.5725 32.6622 20.1819C32.7186 18.6868 32.7389 17.1917 32.775 15.6966C32.7818 15.5765 32.7429 15.4583 32.6667 15.367C32.4524 15.6339 32.2156 15.887 32.0238 16.1702C31.1735 17.4308 30.3389 18.7008 29.4886 19.9614C28.8548 20.9039 28.2142 21.8418 27.5533 22.7635C27.4948 22.8291 27.4219 22.8792 27.3406 22.9095C27.2593 22.9398 27.1721 22.9494 27.0864 22.9376C26.5338 22.7682 25.9969 22.5499 25.4578 22.334C25.0744 22.1785 24.9639 21.8929 25.0067 21.4611C25.1646 20.0148 25.3496 18.5661 25.3947 17.1128C25.3898 16.1413 25.2992 15.1724 25.124 14.2178C25.0361 13.6142 25.0654 13.3681 25.6473 13.3449C26.4614 13.3424 27.2745 13.406 28.0788 13.5352C28.2074 13.5515 28.3698 13.7674 28.4127 13.9276C28.479 14.2063 28.5093 14.4928 28.5029 14.7796C28.5029 16.154 28.5029 17.5284 28.5029 19.0652C28.7578 18.71 28.954 18.4686 29.1141 18.2132C29.7074 17.3078 30.2577 16.356 30.8961 15.497C31.8705 14.1667 33.2103 13.7024 34.8005 13.9113C34.956 13.9127 35.106 13.9709 35.2237 14.0755C35.3414 14.1801 35.4193 14.3243 35.4433 14.4824C35.7411 15.6804 35.6215 16.8806 35.529 18.0855C35.4862 18.6659 35.4726 19.2463 35.4456 19.829L35.5967 19.8801C35.705 19.7176 35.8087 19.5504 35.9238 19.3949C36.9207 18.0554 37.8635 16.6694 38.9417 15.4018C39.4556 14.8531 40.0832 14.4309 40.7778 14.1667C41.6371 13.8115 42.0296 14.2503 41.989 15.1952C41.9056 17.1267 41.8627 19.0606 41.8424 20.9991C41.8424 21.4054 42.0003 21.8117 42.1243 22.3921C42.6499 21.9277 43.0672 21.5749 43.4777 21.2057C44.3574 20.4187 44.8559 19.5481 44.6732 18.2225C44.5375 17.0034 44.5633 15.771 44.7498 14.5591C44.9506 13.0524 46.4032 12.4696 47.7024 13.2729C47.1114 16.1749 47.3438 19.0977 47.4272 22.1831C47.5881 22.064 47.739 21.9312 47.8783 21.7861C48.361 21.1523 48.8482 20.5209 49.2948 19.8615C49.4032 19.6467 49.4567 19.407 49.4505 19.1651C49.7302 14.0181 50.3866 8.93852 51.9316 4.01214C52.1752 3.22977 52.5248 2.48222 52.8339 1.72074C52.975 1.38603 53.1863 1.08758 53.4526 0.846764C53.719 0.605949 54.0337 0.428731 54.3744 0.327799C55.633 -0.143481 56.8962 -0.0715115 58.1593 0.320835C58.6307 0.462451 58.5653 0.808366 58.4999 1.14499C58.2112 2.64938 57.9292 4.16304 57.6112 5.65117C56.7608 9.64893 55.527 13.4865 53.2692 16.9155C53.0222 17.3423 52.8877 17.828 52.879 18.3247C52.7865 20.3932 52.7481 22.464 52.7008 24.5349C52.6958 24.7457 52.7279 24.9557 52.7955 25.1547C52.824 25.2547 52.8772 25.3453 52.9499 25.4178C53.0227 25.4902 53.1124 25.542 53.2104 25.5679C53.3084 25.5939 53.4113 25.5933 53.509 25.566C53.6067 25.5387 53.6958 25.4858 53.7677 25.4124C55.1842 24.0729 56.2308 22.4431 57.2119 20.7693C57.2794 20.635 57.3009 20.4812 57.2728 20.3328C56.8217 17.9741 57.557 15.8406 58.554 13.8022C59.0978 12.7357 59.7504 11.7318 60.5006 10.8074C61.7006 9.28908 63.3381 9.28676 65.0118 9.70464C65.6028 9.86866 66.1735 10.1024 66.7125 10.4011C66.8069 10.443 66.8914 10.5051 66.9606 10.5834C67.0298 10.6617 67.0819 10.7542 67.1135 10.8549C67.1451 10.9555 67.1555 11.062 67.1439 11.1671C67.1323 11.2722 67.099 11.3736 67.0463 11.4644C66.9028 11.7742 66.7416 12.075 66.5636 12.3652C65.4445 14.1621 64.1024 15.801 62.5712 17.2405C62.1697 17.6096 61.8088 18.0275 61.4434 18.4361C60.16 19.8708 60.6472 21.8767 62.2735 22.8749C62.3886 22.9176 62.511 22.9356 62.6331 22.9281C62.7553 22.9205 62.8747 22.8874 62.984 22.8308C64.8065 21.9208 66.2907 20.5557 67.6643 19.0536C67.761 18.9336 67.8742 18.8288 68.0004 18.7425C67.6608 20.1498 66.9533 21.4344 65.9546 22.4571C63.1283 25.4589 59.7292 23.9429 57.9901 21.879C57.8841 21.7304 57.7826 21.5981 57.6473 21.4263ZM53.0414 15.3739L53.197 15.4413C53.3233 15.2439 53.4654 15.0559 53.5737 14.8493C54.9519 12.2119 55.7842 9.37266 56.3932 6.46605C56.6454 5.11655 56.8276 3.75417 56.939 2.38472C56.9638 2.13399 56.745 1.85307 56.639 1.58841C56.3278 1.73003 56.0075 1.8554 55.7097 2.02255C55.6096 2.1101 55.5373 2.22656 55.5022 2.35686C55.0511 3.4271 54.5323 4.47413 54.185 5.57688C53.3143 8.36277 53.1384 11.2438 53.0436 14.1389C53.0301 14.5498 53.0414 14.963 53.0414 15.3739ZM60.1036 16.4744L60.2818 16.5556C61.9838 14.8337 63.5377 12.9632 64.926 10.9653C63.7193 10.6704 62.8532 11.0117 62.1381 11.7871C61.1615 12.8457 60.6495 14.1574 60.2886 15.5434C60.2051 15.8499 60.1645 16.1633 60.1036 16.4744Z"
        fill="#1D1D1B" />
    <path
        d="M8.23188 34.5504C7.91385 34.9126 7.5913 35.2701 7.27552 35.6369C5.33797 37.8935 4.18988 40.5981 3.19742 43.3771C3.08013 43.7067 3.25381 44.2012 3.4117 44.5657C3.52486 44.7976 3.57417 45.0569 3.55429 45.3155C3.53441 45.5742 3.44609 45.8223 3.29892 46.033C3.19939 46.1913 3.06104 46.3199 2.89783 46.4057C2.73461 46.4915 2.55229 46.5314 2.36928 46.5215C2.18627 46.5117 2.00903 46.4523 1.85543 46.3494C1.70184 46.2465 1.57733 46.1037 1.49446 45.9355C1.4313 45.8194 1.40198 45.6661 1.3095 45.5872C0.168177 44.6122 0.0170507 43.2656 0.00351724 41.8727C-0.0528723 35.6509 0.565159 29.5057 2.11926 23.4788C2.43053 22.267 2.9651 21.8537 4.19439 21.8143C5.18663 21.77 6.17362 21.9849 7.06349 22.4388C7.86874 22.8427 8.19129 23.4394 8.07174 24.3471C7.78303 26.4964 7.18077 28.5885 6.28532 30.5527C5.63797 32.0106 4.76505 33.3595 4.09514 34.8081C3.70944 35.6462 3.50418 36.5772 3.26509 37.4779C3.11625 38.0528 3.01216 38.6389 2.95382 39.2307C2.95752 39.523 2.99539 39.8137 3.0666 40.0967L3.23126 40.1176C3.45681 39.7113 3.69816 39.3097 3.90793 38.8941C4.68836 37.3781 5.57255 35.9364 6.75899 34.7153C7.11931 34.3546 7.5037 34.0202 7.90934 33.7147C8.3785 33.3502 8.91082 33.132 9.46118 33.5081C9.72595 33.672 9.93992 33.9102 10.0781 34.1946C10.2163 34.4791 10.273 34.7982 10.2416 35.1146C10.1078 37.0489 9.68162 38.9499 8.97848 40.749C8.86345 41.0532 8.75292 41.3573 8.6424 41.6637C8.6424 41.6637 8.6627 41.6916 8.7033 41.745C9.5514 41.3109 10.4153 40.8814 11.2611 40.4194C11.3604 40.3637 11.3874 40.1245 11.4032 39.9551C11.6423 37.666 12.3055 35.5232 13.5663 33.6172C14.728 31.8713 17.764 31.6044 19.2572 33.0786C19.4068 33.2463 19.5476 33.4222 19.679 33.6056C19.0948 33.5243 18.6527 33.4872 18.2219 33.3966C17.2926 33.2016 16.5821 33.5498 16.0024 34.2719C14.9896 35.5371 14.5926 37.0577 14.4438 38.6341C14.3804 39.521 14.419 40.4124 14.5588 41.29C14.8023 41.0545 15.0285 40.8008 15.2355 40.5308C15.9505 39.4304 16.6294 38.3068 17.3422 37.2063C17.5677 36.8558 17.8632 36.554 18.1046 36.215C18.77 35.2864 19.6474 34.9683 20.7481 35.161C21.5534 35.3003 21.7428 35.551 21.5263 36.3636C21.3007 37.2319 21.0391 38.0932 20.8496 38.9707C20.7545 39.5953 20.6912 40.2245 20.6601 40.8558C20.8519 40.7839 20.9308 40.7792 20.9737 40.7351C21.8759 39.839 22.7781 38.9452 23.642 38.0282C23.7585 37.861 23.8251 37.6626 23.8338 37.4571C24.1337 35.4721 24.3706 33.4756 24.736 31.5045C24.8803 30.7315 25.2841 30.0025 25.6382 29.2828C25.7056 29.1812 25.7947 29.097 25.8987 29.0366C26.0028 28.9762 26.1189 28.9413 26.2382 28.9345C26.9284 28.9345 27.6119 29.046 28.178 29.5892C27.2194 31.4233 26.9465 33.3502 27.3299 35.5487C27.5284 35.2632 27.6502 35.0844 27.7697 34.9196C28.6494 33.6357 29.484 32.3148 30.4268 31.082C30.8531 30.5248 31.4644 30.0977 32.0418 29.6891C32.2841 29.5219 32.561 29.4153 32.8504 29.3779C33.1398 29.3404 33.4337 29.373 33.7087 29.4732C34.5681 29.7471 34.9448 30.2555 34.9064 31.1772C34.8433 32.7466 34.117 34.0722 33.3997 35.4001C33.1741 35.8203 32.9801 36.2591 32.7365 36.7629C32.6496 36.7728 32.5618 36.7728 32.4749 36.7629C31.1486 36.5679 30.9749 36.2243 31.3854 34.9428C31.7238 33.8911 31.9764 32.8116 32.2313 31.7344C32.299 31.4511 32.2426 31.1377 32.2426 30.6432C31.8659 30.9659 31.5366 31.1377 31.3606 31.414C30.6343 32.5446 29.8359 33.6497 29.2878 34.8731C28.372 36.9045 27.6073 39.0102 26.8337 41.1066C26.6961 41.4757 26.8134 41.9423 26.8134 42.4833C26.458 42.681 26.06 42.7836 25.656 42.7816C25.2519 42.7796 24.8549 42.673 24.5014 42.4717C23.4007 41.8982 23.3849 40.8466 23.5247 39.6115C23.3909 39.744 23.2636 39.8835 23.1435 40.0294C22.6428 40.7444 22.1556 41.4711 21.6481 42.1815C21.4473 42.4711 21.1779 42.7031 20.8655 42.8555C20.5531 43.008 20.2081 43.0758 19.8631 43.0525C19.5182 43.0293 19.1847 42.9157 18.8943 42.7227C18.6039 42.5296 18.3663 42.2634 18.2038 41.9493C17.9377 41.4502 17.7527 40.9069 17.464 40.2638C17.1008 40.8558 16.7625 41.3666 16.4648 41.9029C16.1084 42.5506 15.7633 43.1913 14.9265 43.2424C13.8122 43.3121 12.6844 43.333 11.8498 42.4183C11.5701 42.1141 11.4935 41.615 11.295 41.1275C10.5416 41.7798 9.795 42.467 9.0078 43.1008C8.01084 43.9041 6.99132 44.6725 5.96502 45.434C5.74972 45.5863 5.50509 45.6893 5.24775 45.7358C4.6816 45.8472 4.36807 45.4827 4.60491 44.9488C5.2094 43.5907 5.85901 42.2511 6.49057 40.9069C7.2507 39.2818 8.01535 37.6567 8.29504 35.8552C8.3582 35.4605 8.36497 35.0565 8.39654 34.6572L8.23188 34.5504ZM3.37561 33.0971L3.56508 33.1459C3.79064 32.5934 4.04778 32.0431 4.2801 31.486C5.27256 29.0901 6.39133 26.743 6.88079 24.1591C7.01387 23.4626 6.7229 23.0563 6.04171 22.9983C5.5094 22.9518 5.13948 23.1933 4.99964 23.8155C4.54852 25.9281 4.10868 28.0407 3.71621 30.165C3.53802 31.1261 3.48614 32.1267 3.37561 33.0971Z"
        fill="#1D1D1B" />
    <path
        d="M12.2201 22.3784C12.7659 23.6877 13.3298 24.9808 13.8373 26.2949C14.0899 26.9495 14.4982 27.126 15.141 27.0494C16.112 26.9736 17.0461 26.6339 17.8477 26.065C19.28 24.9878 19.6522 23.2234 18.7996 21.6238C18.1432 20.3957 17.0583 19.6575 15.9463 18.9378C15.2734 18.5295 14.629 18.0734 14.0178 17.5727C12.3802 16.1519 11.7802 14.2737 11.9223 12.124C12.0257 9.93735 12.8664 7.85621 14.2997 6.23877C14.6552 5.80522 15.0978 5.45617 15.597 5.21569C16.0962 4.97521 16.6402 4.84902 17.1914 4.84582C19.1509 4.79201 21.1038 5.10185 22.9566 5.76052C24.7611 6.42449 25.3656 7.55742 24.8784 9.47504C24.638 10.3791 24.2887 11.2488 23.8386 12.0636C23.189 13.2685 22.4288 14.413 21.6958 15.5692C21.6236 15.6829 21.3462 15.8013 21.283 15.7526C21.1319 15.6365 20.9492 15.4113 20.965 15.2488C21.0163 14.9083 21.1118 14.5764 21.2492 14.2621C21.8695 12.5743 22.4063 10.868 22.5687 9.05019C22.7153 7.41116 22.4559 6.97935 20.8883 6.60557C20.5809 6.52628 20.2679 6.47194 19.9522 6.44307C18.1477 6.32931 17.4711 6.85863 16.9793 8.15407C16.4876 9.44951 16.0004 10.8007 15.8696 12.2331C15.6734 14.3689 16.3771 16.1333 17.9538 17.4938C18.9665 18.3644 20.0627 19.1351 21.1296 19.9407C22.1965 20.7463 23.2318 21.6006 23.9062 22.8148C24.8671 24.5467 24.6145 26.1532 23.1303 27.444C22.3487 28.134 21.4412 28.6565 20.4609 28.981C19.4806 29.3055 18.4473 29.4254 17.4214 29.3338C15.4929 29.1922 13.5712 28.9275 11.6494 28.693C11.5583 28.6706 11.4736 28.6266 11.4019 28.5645C11.3303 28.5025 11.2737 28.424 11.2366 28.3355C10.8487 26.989 10.56 25.6239 10.6434 24.2054C10.7066 23.1375 11.2434 22.5177 12.2201 22.3784Z"
        fill="#1D1D1B" />
    <path
        d="M49.1618 6.46236C48.855 7.29348 48.5663 8.01781 48.3205 8.75607C48.088 9.41833 47.8945 10.0943 47.7408 10.7805C47.7292 10.9299 47.662 11.0689 47.5531 11.1685C47.4442 11.268 47.3021 11.3203 47.1566 11.3144C46.877 11.3574 46.5918 11.2928 46.3555 11.1331C46.1192 10.9734 45.9483 10.7297 45.8754 10.4485C45.5729 9.41368 45.6005 8.30629 45.9544 7.28884C46.304 6.33003 47.0122 5.92839 47.9844 6.12805C48.3611 6.19538 48.7265 6.33467 49.1618 6.46236Z"
        fill="#1D1D1B" />
    <path
        d="M35.6033 40.8939L41.3303 35.6797L55.281 36.209L60.2005 39.3385V43.2387L45.2956 41.0472L35.6033 41.2724V40.8939Z"
        fill="#741923" />
    <path
        d="M52.2949 40.5059L55.1821 40.3549L55.5836 40.6196L56.5805 40.2505L57.0971 40.1367L59.5782 41.6875C59.5782 41.6875 54.8776 41.7247 54.7242 41.6875C54.5708 41.6504 52.2949 40.5059 52.2949 40.5059Z"
        fill="white" />
    <path
        d="M40.1752 38.4063C40.1529 38.4284 40.1392 38.4581 40.1368 38.4899C40.1255 38.6408 40.1052 39.0888 40.2496 39.1678C40.394 39.2467 41.6029 39.2954 41.7202 39.3001H41.7383L42.3405 39.2304C42.3606 39.2281 42.3799 39.2209 42.3969 39.2095L42.6924 39.0099L42.8322 39.2885C42.8417 39.3099 42.857 39.328 42.8761 39.3408C42.8953 39.3535 42.9177 39.3603 42.9405 39.3604C43.4728 39.3767 46.6487 39.4672 46.969 39.4254C47.2893 39.3837 47.9592 38.9124 48.2005 38.7452C48.2243 38.7288 48.2528 38.721 48.2814 38.7231C48.31 38.7252 48.3371 38.737 48.3584 38.7568L48.8907 39.2351C48.904 39.2476 48.9198 39.257 48.9369 39.2626C48.954 39.2682 48.9721 39.2699 48.99 39.2676L52.8245 38.8961L53.7267 38.7545C53.7944 38.7545 53.8936 38.6547 53.8869 38.585C53.8842 38.5044 53.9126 38.426 53.9658 38.3668C54.0583 38.3064 54.5229 38.4852 54.6673 38.527C54.688 38.5328 54.7098 38.5328 54.7304 38.527L55.344 38.3854C55.3673 38.3797 55.3887 38.3675 55.4058 38.3502C55.4229 38.3328 55.435 38.311 55.4409 38.287C55.4467 38.263 55.446 38.2378 55.4388 38.2142C55.4317 38.1907 55.4184 38.1695 55.4004 38.1532C54.9492 37.7645 54.4713 37.4099 53.9703 37.0923C53.2936 36.6953 52.1252 36.477 50.6929 36.6674C49.3058 36.8508 45.0405 36.8276 44.7856 36.8276H44.7608L41.0165 37.5728C40.9916 37.5781 40.9688 37.5911 40.9511 37.61L40.1752 38.4063Z"
        fill="white" />
    <path
        d="M62.3389 37.0776C61.3014 36.1472 60.3157 35.1574 59.3863 34.113C58.2315 32.8639 57.1307 31.5592 56.0029 30.2916C54.9834 29.1425 53.6865 28.8198 52.2857 29.2168C51.1873 29.5302 50.1407 30.0386 49.0851 30.4983C48.954 30.5759 48.8068 30.6202 48.6558 30.6274C48.5047 30.6347 48.3542 30.6047 48.2167 30.54C47.4956 30.1917 46.7391 29.927 45.9611 29.7507C44.2942 29.435 42.6837 29.5836 41.3777 30.8813C40.8062 31.4312 40.2662 32.015 39.7605 32.6295C38.0056 34.8117 36.3004 37.0405 34.5366 39.2042C33.5892 40.4295 32.4393 41.4731 31.1396 42.2872C31.4897 42.3099 31.8407 42.3099 32.1908 42.2872C34.6538 41.9436 37.0493 42.3313 39.4086 42.9976C42.5822 43.8961 45.4987 45.4446 48.4445 46.8979C49.5362 47.4365 50.6234 47.9356 51.8752 47.9913C53.7248 48.0726 55.4052 47.527 57.0044 46.6588C59.984 45.0569 62.4178 42.7585 64.6441 40.2071C65.1741 39.6035 65.7087 39.0022 66.1846 38.4636C64.7253 38.7909 63.4622 38.0411 62.3389 37.0776ZM56.9548 41.5095C55.7796 41.5095 54.9 41.5095 54.0225 41.2077C53.1451 40.9059 51.6722 39.9981 50.4993 39.6963C49.3264 39.3945 47.8558 39.0904 44.919 39.3945C41.9822 39.6987 38.4568 40.3 38.0169 40.4509C38.0169 40.4509 39.7785 38.9395 40.6605 38.3359C41.5424 37.7323 42.7153 37.1264 45.9453 37.4282C46.8227 37.5117 48.2956 38.0341 48.2956 38.0341C48.8474 37.6635 49.4384 37.359 50.0572 37.1264C50.9392 36.8246 51.5256 36.8246 52.7008 36.8246C53.8759 36.8246 55.0511 38.0341 55.3443 38.3359C55.6375 38.6377 57.1059 40.1491 57.9879 40.755C58.8698 41.3609 59.163 41.3586 59.163 41.3586L59.3096 41.5095H56.9548Z"
        fill="#DD2C14" />
    <path opacity="0.33"
        d="M32.0235 41.9646L35.6031 40.7783L38.9865 39.2391L40.2113 38.668C40.2113 38.668 39.9384 39.5711 38.1655 40.3883C36.3926 41.2055 33.307 42.1225 32.3867 42.2177C31.9738 42.2719 31.5578 42.2959 31.1416 42.2896L32.0235 41.9646Z"
        fill="#741923" />
    <path opacity="0.33"
        d="M56.1875 39.1875C56.8185 39.6368 57.4847 40.0313 58.1792 40.3669C58.9373 40.7239 59.7754 40.862 60.6039 40.7662C61.4295 40.671 63.6264 40.2717 64.3121 40.1301C64.9978 39.9884 64.3347 40.6246 63.1843 41.0262C62.034 41.4278 61.3302 41.8503 60.0942 41.6368C58.8581 41.4232 58.4002 41.1283 57.4393 40.4412C56.4785 39.754 56.1875 39.1875 56.1875 39.1875Z"
        fill="#741923" />
    <path
        d="M49.7803 42.4258C52.4058 42.7996 54.7426 44.3364 57.5034 43.2615C56.1545 44.8263 52.1531 44.3527 49.7803 42.4258Z"
        fill="white" />
    <path
        d="M56.5226 40.3747C57.1045 40.1937 57.6504 40.0474 58.1669 40.5953C58.3925 40.8437 58.7601 40.9667 59.0692 41.1455C57.2376 41.4716 55.355 41.2987 53.6084 40.644V40.4653C54.4046 40.4653 55.2008 40.4653 55.9971 40.4653C56.1755 40.4606 56.3524 40.4301 56.5226 40.3747Z"
        fill="white" />
    <path
        d="M48.0908 32.4339C46.8953 31.5378 45.5239 31.3637 44.1164 31.3126C43.8254 31.3158 43.5346 31.2909 43.248 31.2383C44.8382 30.774 46.4194 30.7346 47.9351 31.5239C48.0727 31.6121 48.2335 31.6539 48.3953 31.6435C48.557 31.6331 48.7116 31.571 48.8374 31.4659C50.3576 30.4745 52.0177 30.3051 53.7523 30.7438C52.911 30.8785 52.038 30.9156 51.2351 31.178C50.3667 31.4659 49.5659 31.9696 48.7223 32.355C48.5261 32.4386 48.2126 32.5268 48.0908 32.4339Z"
        fill="white" />
    <path
        d="M48.7134 42.7189C49.0373 42.7189 49.2999 42.4487 49.2999 42.1153C49.2999 41.782 49.0373 41.5117 48.7134 41.5117C48.3895 41.5117 48.127 41.782 48.127 42.1153C48.127 42.4487 48.3895 42.7189 48.7134 42.7189Z"
        fill="white" />
</svg>